<?xml version="1.0"?>
<svg width="160" height="152" xmlns="http://www.w3.org/2000/svg" xmlns:svg="http://www.w3.org/2000/svg">
 <g class="layer">
  <title>Layer 1</title>
  <g id="svg_54">
   <path d="m9.6,86.42c-2.11,0 -3.84,-1.72 -3.84,-3.83l0,-28.81c0,-2.12 1.74,-3.84 3.84,-3.84c2.12,0 3.84,1.72 3.84,3.84l0,28.8c0,2.12 -1.72,3.84 -3.84,3.84z" fill="#46D9A4" id="svg_52"/>
   <path d="m155.57,138.29l-145.97,0c-2.11,0 -3.84,-1.74 -3.84,-3.84l0,-19.21c0,-2.11 1.74,-3.84 3.84,-3.84c2.12,0 3.84,1.74 3.84,3.84l0,15.37l138.29,0l0,-122.92l-138.29,0l0,13.44c0,2.11 -1.72,3.84 -3.84,3.84c-2.11,0 -3.84,-1.74 -3.84,-3.84l0,-17.28c0,-2.12 1.74,-3.84 3.84,-3.84l145.97,0c2.11,0 3.84,1.72 3.84,3.84l0,130.6c0,2.11 -1.74,3.84 -3.84,3.84l0,0z" fill="#46D9A4" id="svg_51"/>
   <path d="m15.37,57.62l-11.53,0c-2.12,0 -3.84,-1.74 -3.84,-3.84l0,-32.65c0,-2.12 1.72,-3.84 3.84,-3.84l11.53,0c2.11,0 3.84,1.72 3.84,3.84l0,32.65c0,2.11 -1.74,3.84 -3.84,3.84zm-7.68,-7.68l3.84,0l0,-24.97l-3.84,0l0,24.97z" fill="#46D9A4" id="svg_50"/>
   <path d="m15.37,119.08l-11.53,0c-2.12,0 -3.84,-1.72 -3.84,-3.84l0,-32.65c0,-2.11 1.72,-3.83 3.84,-3.83l11.53,0c2.11,0 3.84,1.72 3.84,3.83l0,32.65c0,2.12 -1.74,3.84 -3.84,3.84zm-7.68,-7.68l3.84,0l0,-24.97l-3.84,0l0,24.97z" fill="#46D9A4" id="svg_49"/>
   <path d="m32.65,151.73l-23.05,0c-2.11,0 -3.83,-1.72 -3.83,-3.84c0,-2.11 1.72,-3.84 3.83,-3.84l23.05,0c2.11,0 3.84,1.74 3.84,3.84c0,2.12 -1.74,3.84 -3.84,3.84z" fill="#46D9A4" id="svg_48"/>
   <path d="m155.57,151.73l-23.05,0c-2.11,0 -3.83,-1.72 -3.83,-3.84c0,-2.11 1.72,-3.84 3.83,-3.84l23.05,0c2.11,0 3.84,1.74 3.84,3.84c0,2.12 -1.74,3.84 -3.84,3.84z" fill="#46D9A4" id="svg_47"/>
   <path d="m134.45,40.33l-23.05,0c-2.11,0 -3.83,-1.72 -3.83,-3.83c0,-2.12 1.72,-3.84 3.83,-3.84l23.05,0c2.11,0 3.84,1.72 3.84,3.84c0,2.11 -1.74,3.83 -3.84,3.83z" fill="#46D9A4" id="svg_37"/>
   <path d="m119.08,99.88c0,2.12 -1.71,3.83 -3.84,3.83c-2.12,0 -3.83,-1.71 -3.83,-3.83c0,-2.13 1.71,-3.84 3.83,-3.84c2.13,0 3.84,1.71 3.84,3.84z" fill="#46D9A4" id="svg_35"/>
   <path d="m134.45,99.88c0,2.12 -1.72,3.83 -3.84,3.83c-2.12,0 -3.84,-1.71 -3.84,-3.83c0,-2.13 1.72,-3.84 3.84,-3.84c2.12,0 3.84,1.71 3.84,3.84z" fill="#46D9A4" id="svg_34"/>
   <path d="m119.08,84.51c0,2.12 -1.71,3.84 -3.84,3.84c-2.12,0 -3.83,-1.72 -3.83,-3.84c0,-2.12 1.71,-3.84 3.83,-3.84c2.13,0 3.84,1.72 3.84,3.84z" fill="#46D9A4" id="svg_33"/>
   <path d="m134.45,84.51c0,2.12 -1.72,3.84 -3.84,3.84c-2.12,0 -3.84,-1.72 -3.84,-3.84c0,-2.12 1.72,-3.84 3.84,-3.84c2.12,0 3.84,1.72 3.84,3.84z" fill="#46D9A4" id="svg_32"/>
   <path d="m119.08,69.14c0,2.13 -1.71,3.84 -3.84,3.84c-2.12,0 -3.83,-1.71 -3.83,-3.84c0,-2.12 1.71,-3.84 3.83,-3.84c2.13,0 3.84,1.72 3.84,3.84z" fill="#46D9A4" id="svg_31"/>
   <path d="m134.45,69.14c0,2.13 -1.72,3.84 -3.84,3.84c-2.12,0 -3.84,-1.71 -3.84,-3.84c0,-2.12 1.72,-3.84 3.84,-3.84c2.12,0 3.84,1.72 3.84,3.84z" fill="#46D9A4" id="svg_30"/>
   <path d="m119.08,53.78c0,2.12 -1.71,3.84 -3.84,3.84c-2.12,0 -3.83,-1.72 -3.83,-3.84c0,-2.13 1.71,-3.84 3.83,-3.84c2.13,0 3.84,1.71 3.84,3.84z" fill="#46D9A4" id="svg_29"/>
   <path d="m134.45,53.78c0,2.12 -1.72,3.84 -3.84,3.84c-2.12,0 -3.84,-1.72 -3.84,-3.84c0,-2.13 1.72,-3.84 3.84,-3.84c2.12,0 3.84,1.71 3.84,3.84z" fill="#46D9A4" id="svg_28"/>
  </g>
 </g>
</svg>