<svg width="20" height="20" viewBox="0 0 20 20" fill="none" xmlns="http://www.w3.org/2000/svg">
<path id="globe" opacity="0.5" d="M10 0C4.47581 0 0 4.47581 0 10C0 15.5242 4.47581 20 10 20C15.5242 20 20 15.5242 20 10C20 4.47581 15.5242 0 10 0ZM17.2177 6.45161H14.5161C14.2339 5 13.7903 3.70968 13.2258 2.66129C14.9597 3.42742 16.371 4.75806 17.2177 6.45161ZM10 1.93548C10.7258 1.93548 11.9355 3.62903 12.5403 6.45161H7.41935C8.02419 3.62903 9.23387 1.93548 10 1.93548ZM1.93548 10C1.93548 9.47581 1.97581 8.91129 2.09677 8.3871H5.20161C5.16129 8.95161 5.16129 9.47581 5.16129 10C5.16129 10.5645 5.16129 11.0887 5.20161 11.6129H2.09677C1.97581 11.129 1.93548 10.5645 1.93548 10ZM2.74194 13.5484H5.44355C5.72581 15.0403 6.16935 16.3306 6.73387 17.379C5 16.6129 3.58871 15.2419 2.74194 13.5484ZM5.44355 6.45161H2.74194C3.58871 4.75806 5 3.42742 6.73387 2.66129C6.16935 3.70968 5.72581 5 5.44355 6.45161ZM10 18.0645C9.23387 18.0645 8.02419 16.4113 7.41935 13.5484H12.5403C11.9355 16.4113 10.7258 18.0645 10 18.0645ZM12.8226 11.6129H7.1371C7.09677 11.129 7.09677 10.5645 7.09677 10C7.09677 9.43548 7.09677 8.91129 7.1371 8.3871H12.8226C12.8629 8.91129 12.9032 9.43548 12.9032 10C12.9032 10.5645 12.8629 11.129 12.8226 11.6129ZM13.2258 17.379C13.7903 16.3306 14.2339 15.0403 14.5161 13.5484H17.2177C16.371 15.2419 14.9597 16.6129 13.2258 17.379ZM14.7581 11.6129C14.7984 11.0887 14.8387 10.5645 14.8387 10C14.8387 9.47581 14.7984 8.95161 14.7581 8.3871H17.9032C17.9839 8.91129 18.0645 9.47581 18.0645 10C18.0645 10.5645 17.9839 11.129 17.9032 11.6129H14.7581Z" fill="white"/>
</svg>
