<svg width="16" height="14" viewBox="0 0 16 14" fill="none" xmlns="http://www.w3.org/2000/svg">
<path id="Vector" d="M15.2727 9.49059V13.2202C15.2727 13.6649 14.9536 14 14.5568 14C14.1601 14 13.8409 13.6634 13.8409 13.2766V9.54695C13.8409 7.75133 12.4491 6.31834 10.7386 6.31834H2.64021L6.43453 9.75677C6.73372 10.0278 6.76624 10.5024 6.50818 10.8165C6.36562 10.906 6.16577 10.9937 5.96591 10.9937C5.8 10.9937 5.63301 10.9339 5.49788 10.8106L0.247884 6.07887C0.0903537 5.90811 0 5.67324 0 5.48222C0 5.26301 0.0903537 5.05633 0.247884 4.91541L5.49788 0.183654C5.76933 -0.089353 6.24839 -0.0535595 6.50761 0.261536C6.76582 0.575629 6.73318 1.05037 6.43396 1.32125L2.64021 4.73065H10.7386C13.2384 4.73065 15.2727 6.86636 15.2727 9.49059Z" fill="white"/>
</svg>
