<svg width="18" height="14" viewBox="0 0 18 14" fill="none" xmlns="http://www.w3.org/2000/svg">
<path id="Vector" d="M1.82107 5.49979L6.44271 1.31843C6.74353 1.04793 6.77622 0.574352 6.51676 0.260907C6.2562 -0.0534763 5.80267 -0.0891022 5.50156 0.183217L0.223105 4.90521C0.0908434 5.07478 0 5.28103 0 5.49979C0 5.71754 0.0908434 5.92417 0.249227 6.06699L5.52768 10.789C5.66234 10.9405 5.83029 10.9999 5.99824 10.9999C6.19976 10.9999 6.40043 10.912 6.54289 10.7402C6.80249 10.4267 6.76968 9.95296 6.46884 9.68264L1.82107 5.49979ZM12.7163 4.74977H6.4931L10.308 1.31843C10.6088 1.04793 10.6415 0.574352 10.382 0.260907C10.1215 -0.0534763 9.66674 -0.0891022 9.36683 0.183217L4.0878 4.93415C3.92885 5.07478 3.83888 5.28103 3.83888 5.49979C3.83888 5.71754 3.92972 5.92417 4.0881 6.06699L9.36656 10.789C9.50245 10.912 9.67037 10.9717 9.83712 10.9717C10.0386 10.9717 10.2393 10.8838 10.3818 10.7119C10.6414 10.3985 10.6086 9.92471 10.3077 9.65439L6.4931 6.24981H12.7163C14.436 6.24981 15.8354 7.70766 15.8354 9.47176V13.1937C15.8354 13.6656 16.1593 14 16.5552 14C16.951 14 17.2749 13.6656 17.2749 13.25V9.52801C17.2749 6.88107 15.2295 4.74977 12.7163 4.74977Z" fill="white"/>
</svg>
