<svg width="18" height="19" viewBox="0 0 18 19" fill="none" xmlns="http://www.w3.org/2000/svg">
<path id="Vector" d="M3.90586 1.76786H12.8391L14.0625 3.01788V5.89286H15.75V3.01788C15.75 2.54903 15.5722 2.09933 15.2557 1.76786L14.0625 0.517835C13.7461 0.186251 13.3172 0 12.8707 0H3.90586C3.00551 0 2.25035 0.791116 2.25 1.76712L2.25007 4.79752C2.25 4.79752 2.25014 4.79752 2.25007 4.79752L2.25 5.89286H3.93785L3.90586 1.76786ZM15.4688 7.07143H2.53125C1.13555 7.07143 0 8.26105 0 9.72321V13.2589C0 13.7488 0.37793 14.1429 0.84375 14.1429H1.40625V17.9732C1.40625 18.4631 1.78418 18.8571 2.21836 18.8571C2.65254 18.8571 3.09375 18.4631 3.09375 17.9732V14.1429H4.78125V17.9732C4.78125 18.4631 5.15742 18.8571 5.59336 18.8571C6.0293 18.8571 6.46875 18.4631 6.46875 17.9732V14.1429H8.15625V17.9732C8.15625 18.4631 8.53594 18.8571 9 18.8571C9.46406 18.8571 9.84375 18.4612 9.84375 18.0064V14.1429H11.5312V17.9732C11.5312 18.4631 11.9109 18.8571 12.375 18.8571C12.8391 18.8571 13.2188 18.4612 13.2188 18.0064V14.1429H14.9062V17.9732C14.9062 18.4631 15.2859 18.8571 15.75 18.8571C16.2141 18.8571 16.5938 18.4612 16.5938 18.0064V14.1429H17.1562C17.6221 14.1429 18 13.7469 18 13.2589V9.72321C18 8.26105 16.8645 7.07143 15.4688 7.07143ZM16.3125 12.375H1.6875V9.72321C1.6875 9.23595 2.06613 8.83929 2.53125 8.83929H15.4688C15.9339 8.83929 16.3125 9.23595 16.3125 9.72321V12.375Z" fill="white"/>
</svg>
