<svg width="20" height="19" viewBox="0 0 20 19" fill="none" xmlns="http://www.w3.org/2000/svg"><path opacity="1" d="M19.375 14.5H6.25v-.625c0-.313-.313-.625-.625-.625h-1.25a.642.642 0 0 0-.625.625v.625H.625a.642.642 0 0 0-.625.625v1.25c0 .352.273.625.625.625H3.75v.625c0 .352.273.625.625.625h1.25a.642.642 0 0 0 .625-.625V17h13.125a.642.642 0 0 0 .625-.625v-1.25c0-.313-.313-.625-.625-.625Zm0-6.25H16.25v-.625c0-.313-.313-.625-.625-.625h-1.25a.642.642 0 0 0-.625.625v.625H.625A.642.642 0 0 0 0 8.875v1.25c0 .352.273.625.625.625H13.75v.625c0 .352.273.625.625.625h1.25a.642.642 0 0 0 .625-.625v-.625h3.125a.642.642 0 0 0 .625-.625v-1.25c0-.313-.313-.625-.625-.625Zm0-6.25H11.25v-.625c0-.313-.313-.625-.625-.625h-1.25a.642.642 0 0 0-.625.625V2H.625A.642.642 0 0 0 0 2.625v1.25c0 .352.273.625.625.625H8.75v.625c0 .352.273.625.625.625h1.25a.642.642 0 0 0 .625-.625V4.5h8.125A.642.642 0 0 0 20 3.875v-1.25c0-.313-.313-.625-.625-.625Z" fill="#fff"/></svg>