<svg width="23" height="20" viewBox="0 0 23 20" fill="none" xmlns="http://www.w3.org/2000/svg">
<path id="Vector" d="M6.78582 6.78551H18.9065L13.2279 1.88365C12.7801 1.49721 12.7314 0.820684 13.1177 0.372909C13.5055 -0.0762048 14.1824 -0.127545 14.6288 0.261881L22.4861 7.00752C22.6834 7.2498 22.8575 7.54445 22.8575 7.85695C22.8575 8.16803 22.7223 8.46321 22.4865 8.66679L14.6292 15.4124C14.427 15.5882 14.177 15.6735 13.9288 15.6735C13.6288 15.6735 13.3301 15.5479 13.1181 15.3024C12.7316 14.8546 12.7805 14.1778 13.2283 13.7916L18.9069 8.88978H6.78582C4.22596 8.88978 2.14289 10.9724 2.14289 13.4925V18.8096C2.14289 19.5223 1.66297 20 1.07145 20C0.479918 20 0 19.5223 0 18.9286V13.6115C0 9.8302 3.04424 6.78551 6.78582 6.78551Z" fill="white"/>
</svg>
