<svg width="18" height="19" viewBox="0 0 18 19" fill="none" xmlns="http://www.w3.org/2000/svg">
<path id="Vector" d="M9.00059 4.68032C9.46832 4.68032 9.84461 5.10769 9.84461 5.56453V9.69084C9.84461 10.214 9.46832 10.5751 9.00059 10.5751C8.53286 10.5751 8.15656 10.214 8.15656 9.69084V5.56453C8.15656 5.10769 8.53286 4.68032 9.00059 4.68032ZM10.126 12.9329C10.126 13.6182 9.62306 14.1119 9.00059 14.1119C8.37812 14.1119 7.87522 13.6182 7.87522 12.9329C7.87522 12.314 8.37812 11.754 9.00059 11.754C9.62306 11.754 10.126 12.314 10.126 12.9329ZM1.05502e-05 7.05295C1.05502e-05 6.34927 0.266761 5.67506 0.741806 5.17769L4.94224 0.776907C5.417 0.279465 6.06057 0 6.73227 0H11.2689C11.9406 0 12.5842 0.279465 13.0589 0.776907L17.258 5.17769C17.7327 5.67506 18 6.34927 18 7.05295V11.8056C18 12.5093 17.7327 13.1835 17.258 13.6808L13.0589 18.0798C12.5842 18.5771 11.9406 18.8571 11.2689 18.8571H6.73227C6.06057 18.8571 5.417 18.5771 4.94224 18.0798L0.741455 13.6808C0.266761 13.1835 0 12.5093 0 11.8056L1.05502e-05 7.05295ZM1.9354 6.42664C1.77714 6.59242 1.68817 6.82085 1.68817 7.05295V11.8056C1.68817 12.0377 1.77714 12.2624 1.9354 12.4282L6.13442 16.8308C6.29268 16.9966 6.51071 17.0887 6.73227 17.0887H11.2689C11.4905 17.0887 11.6768 16.9966 11.8668 16.8308L16.0658 12.4282C16.224 12.2624 16.312 12.0377 16.312 11.8056V7.05295C16.312 6.82085 16.224 6.59242 16.0658 6.42664L11.8668 2.02733C11.6768 1.86154 11.4905 1.76833 11.2689 1.76833H6.73227C6.51071 1.76833 6.29268 1.86154 6.13442 2.02733L1.9354 6.42664ZM0.741455 13.6808L1.9354 12.4282L0.741455 13.6808Z" fill="white"/>
</svg>
